<svg xmlns="http://www.w3.org/2000/svg" viewBox="0 0 550.13 235.87"><g id="Layer_2" data-name="Layer 2"><g id="Capa_1" data-name="Capa 1"><path d="M241.85,47.73V35l-35.61,0h-6l-122.66.12v113c0,26.48-13.24,41.61-38.78,41.61S0,174.56,0,148.08V13H26V149.74c0,11.82,5.19,16.07,13.47,16.07S53,161.56,53,149.74V13H210.89l31-.07V0l41.39,23.86Z" style="fill:#fc6b68"/><line x1="180.18" y1="222.29" x2="174.16" y2="222.29" style="fill:none"/><path d="M550.13,88.63v92.76c0,26.48-12.76,40.9-38.75,40.9H151.28v13.58l-22.21-13.09-.84-.49-19.85-11.7,20.33-12,.45-.27,22.12-13v13.29H510.89c8.28,0,13.24-4.24,13.24-16.07V87.43c0-11.81-5-16.08-13.24-16.08H496.23V187.56h-26V47.73h41.16C537.37,47.73,550.13,62.15,550.13,88.63Z" style="fill:#363146"/><line x1="180.56" y1="198.64" x2="179.68" y2="198.64" style="fill:none"/><path d="M158.93,82.28v18.18c0,22.37-10.79,34.56-32.77,34.56H115.78v52.54h-22V47.72h32.36C148.14,47.72,158.93,59.91,158.93,82.28ZM115.78,67.7V115h10.38c7,0,10.79-3.2,10.79-13.18v-21c0-10-3.79-13.18-10.79-13.18Z" style="fill:#fc6b68"/><path d="M169.11,47.72h34.76c22,0,32.77,12.19,32.77,34.56V153c0,22.37-10.79,34.56-32.77,34.56H169.11Zm22,20v99.88h12.39c7,0,11.18-3.59,11.18-13.58V81.28c0-10-4.19-13.58-11.18-13.58Z" style="fill:#363146"/><path d="M321.54,187.56H299.37l-3.8-25.37h-27l-3.8,25.37H244.63L267,47.72h32.17ZM271.4,143.21h21.17L282,72.49Z" style="fill:#363146"/><path d="M317.74,47.72h67.93v20h-23V187.56h-22V67.7h-23Z" style="fill:#363146"/><path d="M417.23,106.65h30.16v20H417.23v41h37.95v20H395.25V47.72h59.93v20H417.23Z" style="fill:#363146"/></g></g></svg>